<?xml version="1.0" encoding="UTF-8"?>
<svg width="30px" height="30px" viewBox="0 0 30 30" version="1.1" xmlns="http://www.w3.org/2000/svg" xmlns:xlink="http://www.w3.org/1999/xlink">
    <!-- Generator: sketchtool 61.1 (101010) - https://sketch.com -->
    <title>877F6F65-6C64-46C4-B390-C9A98B5F5594</title>
    <desc>Created with sketchtool.</desc>
    <g id="Maquettes" stroke="none" stroke-width="1" fill="none" fill-rule="evenodd">
        <g id="01_HP_1920_V1-1" transform="translate(-579.000000, -2947.000000)" fill="#FFFFFF">
            <g id="Réassurances" transform="translate(491.000000, 2916.000000)">
                <g id="Satisfait">
                    <g id="Zone-image" transform="translate(61.000000, 0.000000)">
                        <path d="M34.5,47.5 L49.5,47.5 C49.5,58 34.5,58 34.5,47.5 L34.5,47.5 Z M51,41.5 C51,42.328 50.328,43 49.5,43 L46.5,43 C45.672,43 45,42.328 45,41.5 C45,40.672 45.672,40 46.5,40 L49.5,40 C50.328,40 51,40.672 51,41.5 L51,41.5 Z M34.5,43 C33.672,43 33,42.328 33,41.5 C33,40.672 33.672,40 34.5,40 L37.5,40 C38.328,40 39,40.672 39,41.5 C39,42.328 38.328,43 37.5,43 L34.5,43 Z M54,36.4045 L54,45.3775 C54,51.994 48.6165,58 42,58 C35.3835,58 30,51.994 30,45.3775 L30,36.4045 L30,34.8775 C30,34.0495 30.672,34 31.5,34 L33.027,34 L42,34 L50.973,34 L52.5,34 C53.328,34 54,34.0495 54,34.8775 L54,36.4045 Z M54,31 L42,31 L30,31 C28.3425,31 27,31.72 27,33.3775 L27,45.3775 C27,48.7465 28.125,51.8455 30,54.3505 C30.861,55.4995 31.8795,56.5165 33.027,57.3775 C35.532,59.2525 38.631,61 42,61 C45.369,61 48.468,59.2525 50.973,57.3775 C52.1205,56.5165 53.139,55.4995 54,54.3505 C55.875,51.8455 57,48.7465 57,45.3775 L57,33.3775 C57,31.72 55.6575,31 54,31 L54,31 Z" id="emoji_happy-[#488]"></path>
                    </g>
                </g>
            </g>
        </g>
    </g>
</svg>