<?xml version="1.0" encoding="UTF-8"?>
<svg width="30px" height="30px" viewBox="0 0 30 30" version="1.1" xmlns="http://www.w3.org/2000/svg" xmlns:xlink="http://www.w3.org/1999/xlink">
    <!-- Generator: sketchtool 61.1 (101010) - https://sketch.com -->
    <title>886872F6-ED1A-4744-BAC9-C108FC1295D4</title>
    <desc>Created with sketchtool.</desc>
    <g id="Maquettes" stroke="none" stroke-width="1" fill="none" fill-rule="evenodd">
        <g id="01_HP_1920_V1-1" transform="translate(-1067.000000, -2943.000000)" fill="#FFFFFF">
            <g id="Réassurances" transform="translate(491.000000, 2916.000000)">
                <g id="Livraison" transform="translate(488.000000, 0.000000)">
                    <g id="Zone-image" transform="translate(61.000000, 0.000000)">
                        <path d="M54,49.5 L52.8315,49.5 C52.008,48.585 50.8275,48 49.5,48 C48.9705,48 48.471,48.108 48,48.276 L48,46.5 L52.5,46.5 C53.328,46.5 54,47.172 54,48 L54,49.5 Z M49.5,54 C48.6735,54 48,53.3265 48,52.5 C48,51.6735 48.6735,51 49.5,51 C50.3265,51 51,51.6735 51,52.5 C51,53.3265 50.3265,54 49.5,54 L49.5,54 Z M45,43.5 L30,43.5 L30,31.5 C30,30.672 30.672,30 31.5,30 L43.5,30 C44.328,30 45,30.672 45,31.5 L45,43.5 Z M45,49.5 L37.8315,49.5 C37.008,48 35.8275,48 34.5,48 C33.1725,48 31.992,48 31.1685,49.5 L30,49.5 L30,46.5 L45,46.5 L45,49.5 Z M34.5,54 C33.6735,54 33,53.3265 33,52.5 C33,51.6735 33.6735,51 34.5,51 C35.3265,51 36,51.6735 36,52.5 C36,53.3265 35.3265,54 34.5,54 L34.5,54 Z M48,43.5 L48,30 C48,28.3425 46.6575,27 45,27 L30,27 C28.3425,27 27,28.3425 27,30 L27,49.5 C27,51.1575 28.3425,52.5 30,52.5 C30,54.9855 32.0145,57 34.5,57 C36.9855,57 39,54.9855 39,52.5 L45,52.5 C45,54.9855 47.0145,57 49.5,57 C51.9855,57 54,54.9855 54,52.5 C55.6575,52.5 57,51.1575 57,49.5 L57,46.5 C57,44.8425 55.6575,43.5 54,43.5 L48,43.5 Z" id="car_round-[#641]"></path>
                    </g>
                </g>
            </g>
        </g>
    </g>
</svg>